<?xml version="1.0" encoding="UTF-8" standalone="no"?>
<!-- Created with Inkscape (http://www.inkscape.org/) -->

<svg
   version="1.1"
   id="svg1"
   viewBox="0 0 496 477.33334"
   sodipodi:docname="logo.svg"
   inkscape:version="1.4.2 (ebf0e940, 2025-05-08)"
   xmlns:inkscape="http://www.inkscape.org/namespaces/inkscape"
   xmlns:sodipodi="http://sodipodi.sourceforge.net/DTD/sodipodi-0.dtd"
   xmlns="http://www.w3.org/2000/svg"
   xmlns:svg="http://www.w3.org/2000/svg">
  <defs
     id="defs1" />
  <sodipodi:namedview
     id="namedview1"
     pagecolor="#ffffff"
     bordercolor="#000000"
     borderopacity="0.25"
     inkscape:showpageshadow="2"
     inkscape:pageopacity="0.0"
     inkscape:pagecheckerboard="0"
     inkscape:deskcolor="#d1d1d1"
     inkscape:zoom="0.32105845"
     inkscape:cx="177.53777"
     inkscape:cy="400.23865"
     inkscape:window-width="1272"
     inkscape:window-height="612"
     inkscape:window-x="222"
     inkscape:window-y="44"
     inkscape:window-maximized="0"
     inkscape:current-layer="g1" />
  <g
     inkscape:groupmode="layer"
     inkscape:label="Image"
     id="g1">
    <path
       style="fill:#5c82ff;stroke-width:1.09167"
       d="M 231.88807,475.58352 C 115.66703,468.31867 40.20371,389.87578 40.164348,276.29 40.146558,224.52341 56.691578,184.65405 91.818527,151.81751 104.33,140.12187 104.01323,139.40312 88.8819,145.15293 45.195779,161.75334 19.861897,202.40292 7.178018,276.251 5.3293055,287.01484 2.1397785,263.50473 2.1159675,238.93833 1.9455305,63.011864 195.21205,-51.735268 358.40797,27.398893 484.44948,88.51682 532.32849,242.85769 460.90612,357.80781 449.24377,376.57764 448.96005,376.82187 444.82022,371.6558 426.89014,349.28104 385.89559,338.98603 301.6915,335.71189 162.22973,330.28893 99.17206,273.65726 118.04119,170.77694 c 2.00214,-10.91636 1.68705,-10.914 -5.92389,0.045 -47.596464,68.53298 -6.97084,153.85658 88.249,185.34442 16.13109,5.33436 24.9487,7.06729 55.83967,10.97452 94.94126,12.00855 136.936,23.25527 153.64415,41.14791 4.3774,4.6878 4.28239,5.45068 -1.25436,10.06693 -48.23028,40.21095 -113.05991,61.20656 -176.70769,57.228 z m 37.45538,-180.93901 c 19.84518,-1.38085 36.23347,-5.11668 66.28648,-15.11035 53.19184,-17.68812 61.73713,-20.22909 80.01584,-23.79244 12.846,-2.50431 22.63228,-3.76768 35.72872,-4.61231 13.77873,-0.88853 12.57651,0.90698 12.07833,-18.03874 C 458.18896,32.924167 184.78558,-43.799159 69.169019,122.44555 c -10.149909,14.59439 -10.100816,15.04562 0.912913,8.39748 53.136098,-32.07422 116.434438,-31.85717 163.810828,0.56171 6.09591,4.17132 5.88297,4.31679 -7.7527,5.29664 -50.37178,3.61975 -73.29945,22.17513 -76.91387,62.24637 -4.94654,54.841 31.92041,91.42461 96.38222,95.6413 12.45629,0.81484 12.80972,0.81558 23.73504,0.0557 z"
       id="path1" />
  </g>
</svg>
